<?xml version="1.0" encoding="UTF-8"?>
<svg id="Layer_2" data-name="Layer 2" xmlns="http://www.w3.org/2000/svg" viewBox="0 0 67.63 67.63">
  <defs>
    <style>
      .cls-1 {
        fill: #fff;
      }

      .cls-2 {
        fill: #6f6;
      }
    </style>
  </defs>
  <g id="Layer_1-2" data-name="Layer 1">
    <g>
      <circle class="cls-1" cx="33.82" cy="33.82" r="33.82"/>
      <g>
        <path class="cls-2" d="M5.67,50.56V17.12c3.65,0,7.27-.04,10.89,.02,1.17,.02,2.36,.19,3.5,.46,6.49,1.56,10.04,5.67,10.81,12.73,.24,2.23,.25,4.54-.01,6.76-.94,8.12-5.48,12.67-13.61,13.42-3.79,.35-7.62,.06-11.58,.06Zm8.37-7.17c4.91,.15,7.6-1.92,8.26-6.63,.3-2.1,.27-4.33-.07-6.43-.72-4.45-3.84-6.66-8.19-6.06v19.12Z"/>
        <path class="cls-2" d="M54.53,38.37h-4.46v-7.2h11.89c0,.94,0,1.83,0,2.71,0,4.02,.03,8.04-.03,12.06,0,.61-.29,1.41-.71,1.79-6.53,5.88-18.41,4.17-23.22-3.28-6.33-9.81-1.68-24.47,8.8-27.42,5.34-1.5,10.28-.53,14.56,3.81-1.43,1.88-2.84,3.72-4.07,5.33-1.77-.74-3.27-1.76-4.88-1.98-4.16-.57-7.22,1.89-8.14,6.29-.56,2.68-.53,5.39,.33,8.02,1.25,3.8,5.3,5.99,8.94,4.91,.68-.2,1.05-.5,1.01-1.33-.06-1.19-.01-2.38-.01-3.7Z"/>
      </g>
    </g>
  </g>
</svg>