<?xml version="1.0" encoding="UTF-8"?>
<svg id="Layer_2" data-name="Layer 2" xmlns="http://www.w3.org/2000/svg" viewBox="0 0 239.86 67.63">
  <defs>
    <style>
      .cls-1 {
        fill: #fff;
      }

      .cls-2 {
        fill: #6f6;
      }
    </style>
  </defs>
  <g id="Layer_1-2" data-name="Layer 1">
    <g>
      <g>
        <path d="M143.16,39.81v10.8q-2.64,.46-3.75-1.86c-.79-1.64-1.58-3.29-2.54-4.88,.08,1.14,.19,2.29,.23,3.43,.04,1.11,0,2.21,0,3.4h-2.55v-10.77c2.4-.58,2.66-.47,3.68,1.63,.8,1.65,1.58,3.32,2.47,5.19v-6.94h2.45Z"/>
        <path d="M190.24,46.51c.76,1.4,1.47,2.71,2.2,4.05-2.65,.59-2.79,.5-4.04-1.84-.4-.74-.44-2.08-2.02-1.59v3.55h-2.72v-10.78c1.83,0,3.64-.08,5.43,.03,1.28,.07,2.32,.75,2.68,2.08,.39,1.43,.28,2.81-.85,3.93-.2,.2-.44,.37-.69,.58Zm-3.81-1.35c1.08-.46,1.93-.69,2.61-1.18,.23-.16,.17-1.3-.04-1.41-.74-.38-1.61-.51-2.56-.76v3.35Z"/>
        <path d="M119.51,20.61c0,4.04-2.54,6.35-6.2,5.62-.42-.08-.84-.23-1.21-.43-2.31-1.22-3.31-4.8-2.18-7.75,.94-2.46,3.46-3.64,6.16-2.89,2.18,.6,3.43,2.6,3.43,5.45Zm-2.8,0c-.05-.43-.05-.82-.14-1.19-.26-1.12-.78-2-2.09-1.98-1.22,.02-1.82,.84-1.97,1.92-.12,.89-.11,1.84,.05,2.72,.18,1,.74,1.78,1.92,1.79,1.26,.02,1.75-.83,2.03-1.86,.13-.46,.13-.95,.19-1.4Z"/>
        <path d="M86.24,15.17c2.8,.09,5.81-.73,7.72,2.07,1.41,2.08,1.37,4.53,.1,6.66-1.82,3.02-4.93,2.18-7.81,2.33V15.17Zm2.76,8.58c2.13,.13,2.99-.78,3-3.09,0-2.32-.82-3.2-3-3.1v6.2Z"/>
        <path d="M92.15,48.33v-1.49c-.43-.08-.88-.15-1.43-.25v-2.16h3.96c0,1.63,.03,3.18-.03,4.72-.01,.31-.31,.7-.59,.91-1.97,1.49-5.64,1.02-7.25-.89-1.8-2.13-1.63-6.06,.33-8.07,1.94-1.98,5.01-2.07,7.27-.1-.43,.54-.86,1.08-1.33,1.68-1.4-.78-2.76-1.11-3.95,.24-.84,.96-.97,3.08-.28,4.3,.72,1.27,1.87,1.36,3.29,1.12Z"/>
        <path d="M216.84,50.63q-2.71,.4-3.52-2.19h-3.01c-.22,.78-.43,1.51-.65,2.28h-2.78c1.06-3.52,2.08-6.96,3.15-10.39,.08-.26,.52-.55,.82-.59,2.47-.36,2.67-.21,3.4,2.22,.86,2.88,1.72,5.77,2.59,8.67Zm-6.02-4.59h2.02c-.3-1.34-.57-2.54-.84-3.74-.11,0-.21,0-.32-.01-.27,1.2-.55,2.41-.86,3.76Z"/>
        <path d="M164.66,23.91h-3.03c-.22,.75-.44,1.48-.67,2.24h-2.76c1.06-3.54,2.06-6.99,3.18-10.4,.1-.32,.89-.48,1.39-.59,1.58-.34,2.36,.27,2.77,1.95,.72,3.02,1.74,5.96,2.63,8.96q-2.72,.36-3.51-2.16Zm-2.52-2.41h2.03c-.31-1.34-.6-2.57-.88-3.8-.1,0-.2,0-.3,0-.27,1.24-.55,2.48-.85,3.81Z"/>
        <path d="M118.18,48.36v2.35h-6.99v-10.9h6.76v2.26h-3.96c-.03,.66-.06,1.16-.09,1.84h3.46v2.43h-3.38v2.03h4.2Z"/>
        <path d="M166.88,48.37v2.32h-6.98v-10.86h6.77v2.25h-4.02v1.77c1.08,.05,2.15,.1,3.35,.16v2.29h-3.34v2.08h4.21Z"/>
        <path d="M140.43,26.17h-2.97c.79-4.14-1.81-7.26-3.09-10.81,2.63-.58,2.75-.51,3.56,1.89,.27,.81,.55,1.63,.97,2.87,.49-1.38,.91-2.3,1.13-3.26,.31-1.36,1-1.99,2.39-1.72,.28,.05,.57,.03,.98,.05-1.04,3.67-4.05,6.69-2.97,10.98Z"/>
        <path d="M239.86,48.36v2.31h-6.74v-10.84h2.59v8.53h4.15Z"/>
        <path d="M73.85,15.22V52.41c-.09,0-.18,0-.27,0V15.22c.09,0,.18,0,.27,0Z"/>
      </g>
      <g>
        <circle class="cls-1" cx="33.82" cy="33.82" r="33.82"/>
        <g>
          <path class="cls-2" d="M5.67,50.56V17.12c3.65,0,7.27-.04,10.89,.02,1.17,.02,2.36,.19,3.5,.46,6.49,1.56,10.04,5.67,10.81,12.73,.24,2.23,.25,4.54-.01,6.76-.94,8.12-5.48,12.67-13.61,13.42-3.79,.35-7.62,.06-11.58,.06Zm8.37-7.17c4.91,.15,7.6-1.92,8.26-6.63,.3-2.1,.27-4.33-.07-6.43-.72-4.45-3.84-6.66-8.19-6.06v19.12Z"/>
          <path class="cls-2" d="M54.53,38.37h-4.46v-7.2h11.89c0,.94,0,1.83,0,2.71,0,4.02,.03,8.04-.03,12.06,0,.61-.29,1.41-.71,1.79-6.53,5.88-18.41,4.17-23.22-3.28-6.33-9.81-1.68-24.47,8.8-27.42,5.34-1.5,10.28-.53,14.56,3.81-1.43,1.88-2.84,3.72-4.07,5.33-1.77-.74-3.27-1.76-4.88-1.98-4.16-.57-7.22,1.89-8.14,6.29-.56,2.68-.53,5.39,.33,8.02,1.25,3.8,5.3,5.99,8.94,4.91,.68-.2,1.05-.5,1.01-1.33-.06-1.19-.01-2.38-.01-3.7Z"/>
        </g>
      </g>
    </g>
  </g>
</svg>